<?xml version="1.0" encoding="UTF-8"?>
<svg version="1.1" xmlns="http://www.w3.org/2000/svg" viewBox="0 0 50 50">
<path d="M0 0 C3.6528867 1.82644335 5.51569465 3.2649321 7.7578125 6.66796875 C9.81944962 9.34366098 9.81944962 9.34366098 13.09375 9.1640625 C14.2178125 8.98617188 15.341875 8.80828125 16.5 8.625 C22.4215093 7.7150433 22.4215093 7.7150433 25.37109375 9.16796875 C27.98625022 12.10923585 27.61075748 14.58240364 27.4453125 18.37109375 C26.34439965 24.87034241 21.99928926 29.74948304 16.9375 33.7421875 C10.8312824 37.70630457 4.87238641 38.5931769 -2.29296875 37.62109375 C-9.03114212 36.07510592 -13.59369851 33.20283392 -17.5625 27.5 C-20.78902557 21.49632568 -21.03028826 15.66134651 -20 9 C-18.24866493 5.09317562 -16.81493192 3.58209423 -13.375 1.125 C-8.80938004 -0.39687332 -4.76485036 -0.69843083 0 0 Z " fill="#F8BB31" transform="translate(20,11)"/>
<path d="M0 0 C3.17671072 0.9648624 5.90490805 0.8828151 9.19921875 0.66796875 C8.69921875 2.48046875 8.69921875 2.48046875 7.19921875 4.66796875 C0.10443911 8.21535857 -6.48627394 8.02292248 -14.30078125 7.85546875 C-16.10675781 7.83516602 -16.10675781 7.83516602 -17.94921875 7.81445312 C-20.90021098 7.77932227 -23.85025537 7.73012871 -26.80078125 7.66796875 C-26.31778605 1.26828238 -26.31778605 1.26828238 -24.15234375 -1.24609375 C-16.78299459 -4.64921512 -7.35107354 -2.58806391 0 0 Z " fill="#639B48" transform="translate(36.80078125,2.33203125)"/>
<path d="M0 0 C2.64 0 5.28 0 8 0 C9.1523608 4.17730791 9.41509979 7.85577919 8 12 C4.39970362 14.94569704 1.5266858 16.23015548 -3 17 C-2.88506243 15.10353002 -2.75760358 13.20781668 -2.625 11.3125 C-2.55539063 10.25675781 -2.48578125 9.20101562 -2.4140625 8.11328125 C-2.01239911 5.09322731 -1.25930981 2.75921946 0 0 Z " fill="#FDEE7E" transform="translate(32,25)"/>
<path d="M0 0 C5.5952381 0.5952381 5.5952381 0.5952381 8 3 C8.125 5.625 8.125 5.625 8 8 C7.01 8.33 6.02 8.66 5 9 C4.67 7.68 4.34 6.36 4 5 C2.02463255 5.34786708 2.02463255 5.34786708 0 6 C-1.4783226 8.95664519 -1.06032783 11.74229737 -1 15 C0.65 15.33 2.3 15.66 4 16 C3.67 16.99 3.34 17.98 3 19 C-1.51635191 19.3661907 -1.51635191 19.3661907 -3.640625 17.7578125 C-5.76776226 15.00720397 -5.46613606 12.66271706 -5.3671875 9.29296875 C-4.74147438 5.38559004 -2.79149578 2.79149578 0 0 Z " fill="#FDF081" transform="translate(10,20)"/>
<path d="M0 0 C2.84688846 0.95008985 5.63788678 1.95871236 8.4140625 3.09765625 C8.4140625 3.42765625 8.4140625 3.75765625 8.4140625 4.09765625 C4.18451064 4.28154981 0.49804833 3.9884293 -3.6484375 3.09765625 C-10.93889833 1.52126152 -10.93889833 1.52126152 -17.8359375 3.91015625 C-20.73135989 5.98445288 -20.73135989 5.98445288 -22.5859375 9.09765625 C-22.09773317 2.6289489 -22.09773317 2.6289489 -19.9453125 0.39453125 C-14.15313833 -2.7892466 -6.17847793 -1.55471504 0 0 Z " fill="#A1CC4B" transform="translate(32.5859375,0.90234375)"/>
<path d="M0 0 C1.98 0.66 3.96 1.32 6 2 C6 2.99 6 3.98 6 5 C5.34 5 4.68 5 4 5 C4 5.99 4 6.98 4 8 C4.66 8 5.32 8 6 8 C6 8.99 6 9.98 6 11 C3 13 3 13 0 13 C-2.215015 9.6774775 -2.19410876 9.12268409 -1.6875 5.375 C-1.58824219 4.57835937 -1.48898438 3.78171875 -1.38671875 2.9609375 C-1 1 -1 1 0 0 Z " fill="#FDEE7E" transform="translate(32,25)"/>
<path d="M0 0 C0.99 0 1.98 0 3 0 C2.69075786 2.10464793 2.3774944 4.2087053 2.0625 6.3125 C1.88847656 7.48425781 1.71445312 8.65601563 1.53515625 9.86328125 C1 13 1 13 0 16 C-0.99 16 -1.98 16 -3 16 C-2.01 10.72 -1.02 5.44 0 0 Z " fill="#FDEF7F" transform="translate(22,27)"/>
<path d="M0 0 C1.65 0 3.3 0 5 0 C5 0.99 5 1.98 5 3 C3.35 3.66 1.7 4.32 0 5 C0 3.35 0 1.7 0 0 Z " fill="#F8C038" transform="translate(33,33)"/>
<path d="M0 0 C1.65 0 3.3 0 5 0 C5 0.99 5 1.98 5 3 C3.35 3.33 1.7 3.66 0 4 C0 2.68 0 1.36 0 0 Z " fill="#F8BE35" transform="translate(33,27)"/>
</svg>