<svg width="52" height="48" viewBox="0 0 52 48" fill="none" xmlns="http://www.w3.org/2000/svg">
<path d="M-0.221924 24.592C0.0261531 11.2585 10.039 1.76603 22.296 0.229594C36.9178 -1.59436 49.2172 7.676 51.5805 19.9736C53.8246 31.6368 46.947 42.5547 35.6072 46.881C34.6296 47.2522 34.0943 47.0469 33.7205 46.1204L28.085 32.4766C27.7634 31.6749 27.9821 31.1759 28.8243 30.8215C31.3752 29.7429 32.9633 27.9372 33.3892 25.345C34.06 21.329 30.9411 17.6218 26.5981 17.2719C22.6436 16.9144 19.0758 19.4822 18.4377 23.1332C17.8844 26.3749 19.6014 29.393 22.8394 30.7637C23.8513 31.1911 24.0553 31.611 23.6636 32.5709L18.0019 46.3091C17.7294 46.983 17.1353 47.2218 16.3699 46.9434C10.3948 44.765 5.48874 40.6045 2.59995 35.265C-0.0260734 30.432 -0.0505549 26.6533 -0.221924 24.5844V24.592ZM1.97976 24.4034C2.02383 25.053 2.04667 25.8045 2.11685 26.5742C2.77785 33.6327 7.33463 40.6608 15.9112 44.5505C16.2523 44.692 16.3796 44.6296 16.5069 44.3299C18.0721 40.4858 19.652 36.6447 21.2416 32.8006C21.3771 32.4842 21.3085 32.3336 20.9935 32.151C17.6625 30.1932 16.0043 27.3881 16.1903 23.7052C16.2931 21.5891 17.1696 19.7272 18.6988 18.174C21.852 14.9657 26.807 14.2675 30.8628 16.4474C34.2118 18.2531 36.0805 21.7473 35.6219 25.3298C35.2384 28.3236 33.5916 30.6222 30.8024 32.1754C30.5217 32.3336 30.4368 32.4598 30.5657 32.7671C32.1635 36.6189 33.7532 40.4691 35.3249 44.3208C35.4538 44.6296 35.5811 44.692 35.9124 44.5414C39.6613 42.9167 42.7803 40.5877 45.1957 37.4829C48.8581 32.7443 50.3711 27.4748 49.6481 21.6758C48.2118 10.1389 37.0761 0.584039 22.7366 2.23305C11.5666 3.50936 2.16582 12.296 1.97813 24.4019L1.97976 24.4034Z" fill="#6A994E"/>
</svg>
