<svg width="21" height="21" viewBox="0 0 21 21" fill="none" xmlns="http://www.w3.org/2000/svg">
<path d="M6.5625 0C5.59043 0 4.74141 0.529102 4.29023 1.3125H1.96875C0.881836 1.3125 0 2.19434 0 3.28125V16.4062C0 17.4932 0.881836 18.375 1.96875 18.375H7.875V7.21875C7.875 5.40586 9.34336 3.9375 11.1562 3.9375H13.125V3.28125C13.125 2.19434 12.2432 1.3125 11.1562 1.3125H8.83477C8.38359 0.529102 7.53457 0 6.5625 0ZM11.1562 5.25C10.0693 5.25 9.1875 6.13184 9.1875 7.21875V18.375V19.0312C9.1875 20.1182 10.0693 21 11.1562 21H19.0312C20.1182 21 21 20.1182 21 19.0312V10.0037C21 9.48281 20.7908 8.98242 20.4217 8.61328L17.6367 5.82832C17.2676 5.45918 16.7672 5.25 16.2463 5.25H13.125H11.1562ZM6.5625 1.64062C6.82357 1.64062 7.07395 1.74434 7.25856 1.92894C7.44316 2.11355 7.54688 2.36393 7.54688 2.625C7.54688 2.88607 7.44316 3.13645 7.25856 3.32106C7.07395 3.50566 6.82357 3.60938 6.5625 3.60938C6.30143 3.60938 6.05105 3.50566 5.86644 3.32106C5.68184 3.13645 5.57812 2.88607 5.57812 2.625C5.57812 2.36393 5.68184 2.11355 5.86644 1.92894C6.05105 1.74434 6.30143 1.64062 6.5625 1.64062Z" fill="white"/>
</svg>
