<svg width="51" height="48" viewBox="0 0 51 48" fill="none" xmlns="http://www.w3.org/2000/svg">
<g clip-path="url(#clip0_252_2343)">
<rect width="51" height="48" fill="#F0F7EB"/>
<g clip-path="url(#clip1_252_2343)">
<path d="M51 39V2H0V39H15.9375V44H11.6875V46H39.3125V44H35.0625V39H51ZM2.125 4H48.875V31H2.125V4ZM32.9375 44H18.0625V39H32.9375V44ZM2.125 37V33H48.875V37H2.125Z" fill="#6A994E"/>
<path d="M45.6875 6H31.875V8H45.6875V6Z" fill="#6A994E"/>
<path d="M29.75 6H24.4375V8H29.75V6Z" fill="#6A994E"/>
<path d="M22.3125 6H20.1875V8H22.3125V6Z" fill="#6A994E"/>
<path d="M18.0625 6H15.9375V8H18.0625V6Z" fill="#6A994E"/>
<path d="M45.6875 21H32.9375V23H45.6875V21Z" fill="#6A994E"/>
<path d="M30.8125 21H28.6875V23H30.8125V21Z" fill="#6A994E"/>
<path d="M26.5625 21H24.4375V23H26.5625V21Z" fill="#6A994E"/>
<path d="M45.6875 16H35.0625V18H45.6875V16Z" fill="#6A994E"/>
<path d="M32.9375 16H20.1875V18H32.9375V16Z" fill="#6A994E"/>
<path d="M27.625 11H23.375V13H27.625V11Z" fill="#6A994E"/>
<path d="M45.6875 11H29.75V13H45.6875V11Z" fill="#6A994E"/>
<path d="M21.25 11H5.3125V13H21.25V11Z" fill="#6A994E"/>
<path d="M45.6875 26H25.5V28H45.6875V26Z" fill="#6A994E"/>
<path d="M18.2825 19.793L16.78 21.207L19.7476 24L16.78 26.793L18.2825 28.207L22.7524 24L18.2825 19.793Z" fill="#6A994E"/>
<path d="M9.78247 21.207L8.28003 19.793L3.81006 24L8.28003 28.207L9.78247 26.793L6.81494 24L9.78247 21.207Z" fill="#6A994E"/>
<path d="M14.418 18.6302L10.1716 28.6309L12.1449 29.3731L16.3913 19.3724L14.418 18.6302Z" fill="#6A994E"/>
</g>
</g>
<defs>
<clipPath id="clip0_252_2343">
<rect width="51" height="48" fill="white"/>
</clipPath>
<clipPath id="clip1_252_2343">
<rect width="51" height="48" fill="white"/>
</clipPath>
</defs>
</svg>
