<svg width="24" height="24" viewBox="0 0 24 24" fill="none" xmlns="http://www.w3.org/2000/svg">
<path d="M9.7125 0.023468C10.6446 0.178764 11.2768 1.06234 11.1214 1.99412L10.5964 5.14288H15.6911L16.3071 1.43184C16.4625 0.500066 17.3464 -0.131828 18.2786 0.023468C19.2107 0.178764 19.8429 1.06234 19.6875 1.99412L19.1679 5.14288H22.2857C23.2339 5.14288 24 5.90865 24 6.85649C24 7.80433 23.2339 8.5701 22.2857 8.5701H18.5946L17.4536 15.4245H20.5714C21.5196 15.4245 22.2857 16.1903 22.2857 17.1382C22.2857 18.086 21.5196 18.8518 20.5714 18.8518H16.8804L16.2643 22.5628C16.1089 23.4946 15.225 24.1265 14.2929 23.9712C13.3607 23.8159 12.7286 22.9323 12.8839 22.0005L13.4089 18.8571H8.30893L7.69286 22.5682C7.5375 23.4999 6.65357 24.1318 5.72143 23.9765C4.78929 23.8212 4.15714 22.9377 4.3125 22.0059L4.83214 18.8518H1.71429C0.766071 18.8518 0 18.086 0 17.1382C0 16.1903 0.766071 15.4245 1.71429 15.4245H5.40536L6.54643 8.5701H3.42857C2.48036 8.5701 1.71429 7.80433 1.71429 6.85649C1.71429 5.90865 2.48036 5.14288 3.42857 5.14288H7.11964L7.73571 1.43184C7.89107 0.500066 8.775 -0.131828 9.70714 0.023468H9.7125ZM10.0232 8.5701L8.88214 15.4245H13.9768L15.1179 8.5701H10.0232Z" fill="#2D5016"/>
</svg>
