<svg width="44" height="47" viewBox="0 0 44 47" fill="none" xmlns="http://www.w3.org/2000/svg">
<path d="M40.4858 15.0943V7.54717H37.247V0H0V43.0189C0 45.0996 1.81619 46.7925 4.04858 46.7925H39.6761C41.9085 46.7925 43.7247 45.0996 43.7247 43.0189V15.0943H40.4858ZM4.04858 45.283C2.70931 45.283 1.61943 44.2672 1.61943 43.0189V1.50943H35.6275V43.0189C35.6275 43.8679 35.9296 44.6521 36.4389 45.283H4.04858ZM42.1053 43.0189C42.1053 44.2672 41.0154 45.283 39.6761 45.283C38.3368 45.283 37.247 44.2672 37.247 43.0189V9.0566H38.8664V40.7547H40.4858V16.6038H42.1053V43.0189Z" fill="#6A994E"/>
<path d="M40.4859 42.2642H38.8665V43.7736H40.4859V42.2642Z" fill="#6A994E"/>
<path d="M27.8324 34.8748L25.1013 34.148V33.9465C26.1102 33.2378 26.7207 32.1231 26.7207 30.9435V29.5639C26.7207 27.5669 25.1158 25.8605 23.0664 25.6786C21.932 25.5744 20.7911 25.9276 19.949 26.6408C19.1069 27.3548 18.6235 28.3729 18.6235 29.4341V30.9435C18.6235 32.1231 19.2341 33.2378 20.243 33.9465V34.148L17.511 34.8748C15.7822 35.3359 14.575 36.828 14.575 38.5042V40.7548H30.7693V38.5042C30.7693 36.828 29.562 35.3359 27.8324 34.8748ZM29.1498 39.2454H16.1944V38.5042C16.1944 37.499 16.9191 36.6031 17.9563 36.3269L21.8624 35.2861V33.1095L21.46 32.8914C20.698 32.4778 20.243 31.7495 20.243 30.9435V29.4341C20.243 28.7971 20.5328 28.1865 21.0381 27.7578C21.5507 27.3231 22.2106 27.1216 22.9126 27.1797C24.1401 27.2891 25.1013 28.3367 25.1013 29.5639V30.9435C25.1013 31.7495 24.6462 32.4778 23.8843 32.8914L23.4818 33.1095V35.2861L27.3871 36.3269C28.4252 36.6031 29.1498 37.499 29.1498 38.5042V39.2454Z" fill="#6A994E"/>
<path d="M11.3359 43.7737H34.008V22.6416H11.3359V43.7737ZM12.9554 24.151H32.3886V42.2642H12.9554V24.151Z" fill="#6A994E"/>
<path d="M12.9554 21.1323C18.3133 21.1323 22.672 17.0696 22.672 12.0756C22.672 7.08168 18.3133 3.01904 12.9554 3.01904C7.59747 3.01904 3.23877 7.08168 3.23877 12.0756C3.23877 17.0696 7.59747 21.1323 12.9554 21.1323ZM12.9554 19.6228C9.65334 19.6228 6.81124 17.7677 5.55213 15.1194C6.52784 15.1813 7.44039 15.5489 8.13836 16.1994L8.30598 16.3556C8.99909 17.0024 9.92136 17.3587 10.9027 17.3587C12.9278 17.3587 14.5748 15.8236 14.5748 13.936V13.2077C14.5748 11.7511 13.3035 10.5662 11.7408 10.5662C11.0712 10.5662 10.5262 10.0583 10.5262 9.43414V8.30206C10.5262 7.21904 10.1513 6.15187 9.4833 5.2681C10.3206 4.89527 11.2331 4.64848 12.1983 4.5647C12.1756 4.73527 12.1457 4.90659 12.1457 5.07791C12.1457 6.39867 12.7797 7.62961 13.8865 8.45451L15.2663 9.48244C15.8558 9.92169 16.1942 10.5783 16.1942 11.2809C16.1942 13.3836 18.0299 15.0945 20.2857 15.0945C20.3149 15.0945 20.3457 15.0892 20.3748 15.0885C19.1238 17.7541 16.2703 19.6228 12.9554 19.6228ZM21.0525 12.0756C21.0525 12.5745 20.9975 13.0621 20.8979 13.5345C20.6922 13.5647 20.4874 13.5851 20.2857 13.5851C18.9222 13.5851 17.8137 12.5519 17.8137 11.2809C17.8137 10.1172 17.255 9.03187 16.2784 8.30357L14.8987 7.27489C14.178 6.73829 13.7651 5.93678 13.7651 5.07791C13.7651 4.91036 13.7829 4.74206 13.8185 4.57301C17.8784 4.97602 21.0525 8.18584 21.0525 12.0756ZM8.10355 6.04772C8.62096 6.69451 8.90679 7.49451 8.90679 8.30206V9.43414C8.90679 10.8907 10.178 12.0756 11.7408 12.0756C12.4104 12.0756 12.9554 12.5836 12.9554 13.2077V13.936C12.9554 14.9904 12.0339 15.8492 10.9027 15.8492C10.3537 15.8492 9.83877 15.65 9.45092 15.2892L9.2833 15.133C8.21286 14.1353 6.78938 13.5851 5.27521 13.5851C5.19181 13.5851 5.10517 13.5745 5.01772 13.5624C4.91407 13.0809 4.8582 12.5843 4.8582 12.0756C4.8582 9.6115 6.13756 7.42659 8.10355 6.04772Z" fill="#6A994E"/>
<path d="M34.0081 3.01904H24.2915V4.52848H34.0081V3.01904Z" fill="#6A994E"/>
<path d="M25.9109 6.0376H24.2915V7.54703H25.9109V6.0376Z" fill="#6A994E"/>
<path d="M34.008 6.0376H27.5303V7.54703H34.008V6.0376Z" fill="#6A994E"/>
<path d="M34.0081 9.05664H24.2915V10.5661H34.0081V9.05664Z" fill="#6A994E"/>
<path d="M34.0081 12.0757H24.2915V13.5851H34.0081V12.0757Z" fill="#6A994E"/>
<path d="M30.7692 15.0942H24.2915V16.6037H30.7692V15.0942Z" fill="#6A994E"/>
<path d="M34.0081 15.0942H32.3887V16.6037H34.0081V15.0942Z" fill="#6A994E"/>
<path d="M9.7165 41.5093H3.23877V43.0187H9.7165V41.5093Z" fill="#6A994E"/>
<path d="M9.7165 38.4907H3.23877V40.0002H9.7165V38.4907Z" fill="#6A994E"/>
<path d="M9.7165 35.4717H3.23877V36.9811H9.7165V35.4717Z" fill="#6A994E"/>
<path d="M9.7165 32.4526H3.23877V33.9621H9.7165V32.4526Z" fill="#6A994E"/>
<path d="M9.7165 29.4341H3.23877V30.9435H9.7165V29.4341Z" fill="#6A994E"/>
</svg>
