<svg width="52" height="49" viewBox="0 0 52 49" fill="none" xmlns="http://www.w3.org/2000/svg">
<path d="M28.4185 31.1623H48.4785V18.6973H28.4185V31.1623ZM30.0901 20.2554H46.8069V29.6041H30.0901V20.2554Z" fill="#6A994E"/>
<path d="M48.4786 32.7207H46.8069V34.2788H48.4786V32.7207Z" fill="#6A994E"/>
<path d="M45.1351 32.7207H40.1201V34.2788H45.1351V32.7207Z" fill="#6A994E"/>
<path d="M3.34335 42.0693C1.49949 42.0693 0 43.467 0 45.1856C0 46.9042 1.49949 48.3018 3.34335 48.3018C5.1872 48.3018 6.68669 46.9042 6.68669 45.1856C6.68669 43.467 5.1872 42.0693 3.34335 42.0693ZM3.34335 46.7437C2.42142 46.7437 1.67167 46.0449 1.67167 45.1856C1.67167 44.3263 2.42142 43.6275 3.34335 43.6275C4.26527 43.6275 5.01502 44.3263 5.01502 45.1856C5.01502 46.0449 4.26527 46.7437 3.34335 46.7437Z" fill="#6A994E"/>
<path d="M10.0301 44.4067H8.3584V45.9649H10.0301V44.4067Z" fill="#6A994E"/>
<path d="M13.3733 44.4067H11.7017V45.9649H13.3733V44.4067Z" fill="#6A994E"/>
<path d="M16.7168 44.4067H15.0452V45.9649H16.7168V44.4067Z" fill="#6A994E"/>
<path d="M20.0601 44.4067H18.3884V45.9649H20.0601V44.4067Z" fill="#6A994E"/>
<path d="M23.4034 44.4067H21.7317V45.9649H23.4034V44.4067Z" fill="#6A994E"/>
<path d="M4.17924 38.9531H2.50757V40.5113H4.17924V38.9531Z" fill="#6A994E"/>
<path d="M4.17924 35.8369H2.50757V37.395H4.17924V35.8369Z" fill="#6A994E"/>
<path d="M51.8219 1.55813V0H38.9667L34.8469 3.41307C31.1809 1.18651 26.9549 0 22.5676 0C10.1237 0 0 9.43601 0 21.0347C0 25.3562 1.40671 29.3761 3.81392 32.7206H2.50751V34.2788H4.17918V33.206C8.27395 38.5644 14.9874 42.0694 22.5676 42.0694C23.4043 42.0694 24.2418 42.011 25.0751 41.9245V45.1856C25.0751 46.9042 26.5746 48.3019 28.4184 48.3019H51.8219V46.7438C50.8999 46.7438 50.1502 46.0449 50.1502 45.1856C50.1502 44.3263 50.8999 43.6275 51.8219 43.6275V15.5813H44.3445C44.194 15.0601 44.0202 14.5412 43.8221 14.0231H51.8219V12.465H40.1202V10.1278H51.8219V8.56969H40.1202V5.45344H51.8219V3.89531H40.1202V1.55813H51.8219ZM20.0651 1.70303C17.9003 3.572 14.5227 7.09804 12.5183 12.2258C8.95682 11.4608 6.5772 10.4589 5.43795 9.90033C8.76709 5.46435 14.0228 2.37848 20.0651 1.70303ZM4.52856 11.2216C5.71963 11.8238 8.22045 12.9052 11.9917 13.7247C11.3682 15.6927 10.9595 17.8709 10.8851 20.2556H1.69257C1.83215 16.9711 2.84853 13.8954 4.52856 11.2216ZM1.69257 21.8138H10.8851C10.9595 24.1985 11.3682 26.3767 11.9917 28.3446C8.22045 29.1634 5.71963 30.2448 4.52856 30.8478C2.84853 28.174 1.83215 25.0983 1.69257 21.8138ZM5.43879 32.1698C6.57803 31.612 8.95682 30.6094 12.5192 29.8443C14.5235 34.9713 17.9011 38.4974 20.0659 40.3671C14.0228 39.6909 8.76709 36.605 5.43879 32.1698ZM21.7317 39.6496C19.8252 38.0689 16.293 34.6363 14.2059 29.5187C16.3607 29.1471 18.8715 28.8861 21.7317 28.8417V39.6496ZM21.7317 27.2836C18.645 27.3287 15.9536 27.6139 13.6576 28.019C13.0424 26.1461 12.6353 24.0762 12.5576 21.8138H21.7317V27.2836ZM21.7317 20.2556H12.5576C12.6353 17.9932 13.0424 15.9233 13.6576 14.0504C15.9536 14.4555 18.645 14.7406 21.7317 14.7858V20.2556ZM21.7317 13.2277C18.8715 13.1833 16.3607 12.9223 14.2059 12.5507C16.293 7.43226 19.8252 4.00049 21.7317 2.41977V13.2277ZM38.4485 2.51404V11.5099L33.0197 7.01156L38.4485 2.51404ZM33.5496 4.48818L30.5039 7.01156L35.8114 11.4086C34.8853 11.6945 33.8079 11.9765 32.5985 12.2352C30.5874 7.10194 27.2299 3.57824 25.0718 1.71082C28.0799 2.04738 30.9585 2.98771 33.5496 4.48818ZM23.4034 2.41821C25.3133 3.99893 28.8464 7.44239 30.9301 12.5562C28.7837 12.9239 26.2678 13.181 23.4034 13.2254V2.41821ZM25.0751 40.3578C25.0692 40.3578 25.0642 40.3586 25.0584 40.3593C25.0642 40.3547 25.0692 40.35 25.0751 40.3453V40.3578ZM25.0751 38.1484C24.4499 38.7607 23.8773 39.2655 23.4034 39.6551V28.8331C23.9384 28.8432 24.49 28.8619 25.0751 28.8915V38.1484ZM25.0751 27.3311C24.4917 27.303 23.9409 27.2843 23.4034 27.275V21.8138H25.0751V27.3311ZM25.0751 18.6975V20.2556H23.4034V14.7928C26.4877 14.7469 29.1832 14.4563 31.4759 14.0504C31.6389 14.5467 31.7835 15.0569 31.9147 15.5813H28.4184C26.5746 15.5813 25.0751 16.9789 25.0751 18.6975ZM48.9274 46.7438H28.4184C27.4965 46.7438 26.7468 46.0449 26.7468 45.1856C26.7468 44.3263 27.4965 43.6275 28.4184 43.6275H48.9274C48.6415 44.0864 48.4785 44.6185 48.4785 45.1856C48.4785 45.7528 48.6415 46.2849 48.9274 46.7438ZM50.1502 17.1394V42.0694H28.4184C27.81 42.0694 27.2391 42.2213 26.7468 42.4877V18.6975C26.7468 17.8382 27.4965 17.1394 28.4184 17.1394H50.1502ZM42.0409 14.0231C42.2557 14.5404 42.4446 15.0593 42.6084 15.5813H33.6299C33.4811 14.9432 33.3123 14.3254 33.1209 13.7263C34.7399 13.3749 36.1173 12.9784 37.2449 12.5967L38.9667 14.0231H42.0409Z" fill="#6A994E"/>
</svg>
