<svg xmlns="http://www.w3.org/2000/svg" viewBox="0 0 48 48" xmlns:xlink="http://www.w3.org/1999/xlink" xml:space="preserve" width="100%" height="100%"><g xmlns="http://www.w3.org/2000/svg" fill="#6A994E" transform="scale(3)"><path fill-rule="evenodd" d="M5.443 1.991a60 60 0 0 0-2.725.802.45.45 0 0 0-.315.366C1.87 7.056 3.1 9.9 4.567 11.773c.736.94 1.533 1.636 2.197 2.093.333.228.626.394.857.5q.174.079.282.11A1 1 0 0 0 8 14.5c.007-.001.038-.005.097-.023q.108-.032.282-.111c.23-.106.525-.272.857-.5a10.2 10.2 0 0 0 2.197-2.093C12.9 9.9 14.13 7.056 13.597 3.159a.45.45 0 0 0-.315-.366c-.626-.2-1.682-.526-2.725-.802C9.491 1.71 8.51 1.5 8 1.5s-1.49.21-2.557.491m-.256-.966C6.23.749 7.337.5 8 .5c.662 0 1.77.249 2.813.525a61 61 0 0 1 2.772.815c.528.168.926.623 1.003 1.184.573 4.197-.756 7.307-2.367 9.365a11.2 11.2 0 0 1-2.418 2.3 7 7 0 0 1-1.007.586c-.27.124-.558.225-.796.225s-.526-.101-.796-.225a7 7 0 0 1-1.007-.586 11.2 11.2 0 0 1-2.417-2.3C2.167 10.331.839 7.221 1.412 3.024A1.45 1.45 0 0 1 2.415 1.84a61 61 0 0 1 2.772-.815"></path><path d="M8 2.25c.909 0 3.188.685 4.254 1.022a.94.94 0 0 1 .656.773c.814 6.424-4.13 9.452-4.91 9.452z"></path></g></svg>